<svg width="193" height="44" viewBox="0 0 193 44" fill="none" xmlns="http://www.w3.org/2000/svg">
<g opacity="0.7" clip-path="url(#clip0_1325_10367)">
<path d="M150.664 21.982C150.664 20.8598 150.664 19.8042 150.627 18.8293C150.602 17.9097 150.511 16.993 150.355 16.0864C150.208 15.2586 149.949 14.4546 149.586 13.6967C149.202 12.9152 148.689 12.2042 148.068 11.5936C147.188 10.6916 146.14 9.96974 144.984 9.46825C143.733 8.96157 142.393 8.7104 141.044 8.72953C139.69 8.71203 138.345 8.9631 137.088 9.46825C135.925 9.9629 134.871 10.6816 133.986 11.5835C133.366 12.1937 132.855 12.9049 132.474 13.6866C132.113 14.4447 131.859 15.2488 131.717 16.0763C131.564 16.9832 131.476 17.8998 131.455 18.8193C131.431 19.7941 131.419 20.8497 131.425 21.9719C131.431 23.0941 131.425 24.1416 131.455 25.1226C131.476 26.042 131.564 26.9587 131.717 27.8655C131.859 28.693 132.113 29.4971 132.474 30.2552C132.857 31.036 133.368 31.7469 133.986 32.3583C134.87 33.2609 135.924 33.9786 137.088 34.4695C138.344 34.978 139.689 35.2305 141.044 35.2123C142.394 35.2322 143.734 34.9795 144.984 34.4695C146.14 33.9747 147.188 33.2574 148.068 32.3583C148.687 31.7465 149.2 31.0357 149.586 30.2552C149.949 29.4973 150.208 28.6933 150.355 27.8655C150.51 26.9615 150.599 26.0475 150.623 25.1306C150.653 24.1497 150.668 23.1002 150.659 21.98L150.664 21.982ZM145.577 21.982C145.577 23.2253 145.559 24.2607 145.517 25.0842C145.493 25.7606 145.426 26.4348 145.315 27.1026C145.239 27.5474 145.103 27.98 144.911 28.3882C144.755 28.7173 144.551 29.0214 144.306 29.2904C143.927 29.7242 143.457 30.0688 142.929 30.2996C142.336 30.5537 141.696 30.6828 141.05 30.6792C140.401 30.6819 139.758 30.5528 139.161 30.2996C138.621 30.0731 138.138 29.7282 137.748 29.2904C137.501 29.0226 137.297 28.7183 137.143 28.3882C136.956 27.9795 136.827 27.5468 136.759 27.1026C136.651 26.4344 136.584 25.7604 136.557 25.0842C136.521 24.2607 136.503 23.2267 136.503 21.982C136.503 20.7387 136.521 19.7013 136.557 18.8778C136.584 18.2016 136.651 17.5276 136.759 16.8594C136.827 16.4152 136.956 15.9825 137.143 15.5738C137.297 15.244 137.502 14.9397 137.748 14.6716C138.138 14.2344 138.621 13.8896 139.161 13.6624C139.758 13.4063 140.401 13.2771 141.05 13.2829C141.696 13.2762 142.336 13.4055 142.929 13.6624C143.456 13.8939 143.926 14.2384 144.306 14.6716C144.551 14.941 144.755 15.245 144.911 15.5738C145.103 15.982 145.239 16.4146 145.315 16.8594C145.425 17.5272 145.493 18.2014 145.517 18.8778C145.561 19.6993 145.577 20.7367 145.577 21.982Z" fill="white"/>
<path d="M191.193 9.40162C191.19 9.15619 190.992 8.95776 190.747 8.95557H186.55C186.305 8.95667 186.106 9.15573 186.104 9.40162V24.9025L175.871 9.0807C175.803 8.97373 175.742 8.95557 175.591 8.95557H171.699C171.454 8.95883 171.257 9.15663 171.253 9.40162V34.5543C171.257 34.7989 171.455 34.9961 171.699 34.9983H175.894C176.138 34.9972 176.337 34.7991 176.338 34.5543V19.013L186.573 34.8712C186.643 34.9781 186.7 34.9963 186.853 34.9963H190.743C190.988 34.9952 191.186 34.7974 191.189 34.5523L191.193 9.40162Z" fill="white"/>
<path d="M163.062 9.40162C163.061 9.15573 162.862 8.95667 162.616 8.95557H158.424C158.178 8.95667 157.979 9.15573 157.978 9.40162V34.5523C157.979 34.7982 158.178 34.9972 158.424 34.9983H162.616C162.862 34.9972 163.061 34.7982 163.062 34.5523V9.40162Z" fill="white"/>
<path d="M112.881 21.9803C112.881 20.7289 112.895 19.6874 112.932 18.8579C112.956 18.1815 113.024 17.5074 113.134 16.8396C113.521 14.5992 115.237 13.2772 117.427 13.2772C118.856 13.2893 120.151 13.8181 120.979 15.021C121.354 15.5826 121.627 16.2057 121.786 16.8618C121.798 16.9309 121.862 16.9791 121.932 16.9728H126.866C126.937 16.9728 126.963 16.9243 126.951 16.8557C126.412 13.8019 124.783 11.059 121.905 9.70066C120.491 9.04573 118.947 8.71804 117.388 8.74194C114.61 8.74194 112.269 9.69326 110.366 11.5959C109.28 12.6546 108.539 14.0165 108.239 15.5034C107.948 16.9674 107.802 19.1257 107.799 21.9783C107.796 24.8309 107.943 26.9885 108.239 28.4511C108.536 29.94 109.275 31.3046 110.36 32.3667C112.262 34.268 114.602 35.2186 117.382 35.2186C118.94 35.2422 120.484 34.9153 121.899 34.2619C124.777 32.9036 126.406 30.1607 126.945 27.1069C126.957 27.0363 126.931 26.9898 126.86 26.9898H121.923C121.853 26.9825 121.789 27.0312 121.778 27.1008C121.618 27.7562 121.345 28.3785 120.971 28.9396C120.143 30.1506 118.847 30.6733 117.418 30.6834C115.229 30.6834 113.513 29.3634 113.125 27.123C113.016 26.4552 112.948 25.7811 112.924 25.1047C112.895 24.2711 112.881 23.2276 112.881 21.9803Z" fill="white"/>
<path d="M60.7587 9.40162C60.7576 9.15573 60.5585 8.95667 60.3126 8.95557H56.1205C55.8746 8.95667 55.6755 9.15573 55.6744 9.40162V34.5543C55.6766 34.7994 55.8754 34.9972 56.1205 34.9986H60.3126C60.5577 34.9972 60.7565 34.7994 60.7587 34.5543V27.1712L64.1232 23.1486L71.0341 34.8651C71.0873 34.9515 71.183 35.0024 71.2843 34.9986H76.3787C76.6128 34.9986 76.6552 34.853 76.5381 34.6532L67.4899 19.3137L75.7913 9.3552C75.9588 9.15336 75.8882 8.96162 75.6258 8.96162H70.0572C69.9894 8.95764 69.9242 8.98797 69.8836 9.04236L60.7587 19.9858V9.40162Z" fill="white"/>
<path d="M91.3 30.6831C88.9406 30.6831 86.8011 28.4992 86.8011 25.8915V9.40162C86.8 9.15573 86.601 8.95667 86.3551 8.95557H82.163C81.9171 8.95667 81.718 9.15573 81.7169 9.40162V25.8269C81.7169 31.5691 86.012 35.2183 91.3 35.2183C96.5881 35.2183 100.883 31.5691 100.883 25.8269V9.40162C100.881 9.15619 100.683 8.95776 100.437 8.95557H96.243C95.9979 8.95777 95.8 9.15651 95.7989 9.40162V25.8915C95.7989 28.4972 93.6575 30.6831 91.3 30.6831Z" fill="white"/>
<path fill-rule="evenodd" clip-rule="evenodd" d="M13.5347 21.9807L26.5491 34.997L34.7637 26.7824C36.2326 25.4598 38.4799 25.5186 39.8775 26.9163C41.2752 28.3139 41.3341 30.5612 40.0114 32.0301L29.1709 42.8726C27.7148 44.3047 25.3793 44.3047 23.9232 42.8726L8.283 27.2284V36.527C8.283 38.5791 6.61939 40.2427 4.56722 40.2427C2.51505 40.2427 0.85144 38.5791 0.85144 36.527V7.42237C0.85144 5.3702 2.51505 3.70659 4.56722 3.70659C6.61939 3.70659 8.283 5.3702 8.283 7.42237V16.7209L23.9212 1.08072C25.3769 -0.352426 27.7132 -0.352426 29.1689 1.08072L40.0175 11.9213C41.3401 13.3902 41.2813 15.6374 39.8836 17.0351C38.4859 18.4328 36.2387 18.4916 34.7698 17.169L26.5551 8.95429L13.5347 21.9807ZM26.5551 18.2609C25.0504 18.2601 23.6934 19.1659 23.117 20.5558C22.5406 21.9457 22.8584 23.546 23.9221 24.6103C24.9858 25.6746 26.5859 25.9932 27.9761 25.4176C29.3664 24.8419 30.2729 23.4854 30.2729 21.9807C30.2734 20.9942 29.882 20.0478 29.1848 19.3498C28.4876 18.6518 27.5417 18.2594 26.5551 18.2589V18.2609Z" fill="white"/>
</g>
<defs>
<clipPath id="clip0_1325_10367">
<rect width="191.714" height="44" fill="white" transform="translate(0.856567)"/>
</clipPath>
</defs>
</svg>
